<mxfile host="app.diagrams.net" agent="Mozilla/5.0 (X11; Linux x86_64; rv:134.0) Gecko/20100101 Firefox/134.0" version="26.0.7">
  <diagram name="Page-1" id="wCY9BLCr48XN0YguiykY">
    <mxGraphModel dx="881" dy="572" grid="1" gridSize="10" guides="1" tooltips="1" connect="1" arrows="1" fold="1" page="1" pageScale="1" pageWidth="850" pageHeight="1100" math="1" shadow="0">
      <root>
        <mxCell id="0" />
        <mxCell id="1" parent="0" />
        <mxCell id="Nl3SyjKrOJLu1EO7rE2Q-1" value="" style="endArrow=none;html=1;rounded=0;startArrow=classic;startFill=1;" edge="1" parent="1">
          <mxGeometry width="50" height="50" relative="1" as="geometry">
            <mxPoint x="240" y="40" as="sourcePoint" />
            <mxPoint x="240" y="160" as="targetPoint" />
          </mxGeometry>
        </mxCell>
        <mxCell id="Nl3SyjKrOJLu1EO7rE2Q-2" value="" style="endArrow=none;html=1;rounded=0;startArrow=classic;startFill=1;" edge="1" parent="1">
          <mxGeometry width="50" height="50" relative="1" as="geometry">
            <mxPoint x="680" y="160" as="sourcePoint" />
            <mxPoint x="240" y="160" as="targetPoint" />
          </mxGeometry>
        </mxCell>
        <mxCell id="Nl3SyjKrOJLu1EO7rE2Q-3" value="$$\textnormal{IPC}$$" style="text;html=1;align=center;verticalAlign=middle;whiteSpace=wrap;rounded=0;rotation=0;" vertex="1" parent="1">
          <mxGeometry x="200" y="80" width="40" height="40" as="geometry" />
        </mxCell>
        <mxCell id="Nl3SyjKrOJLu1EO7rE2Q-4" value="" style="endArrow=none;html=1;rounded=0;curved=1;" edge="1" parent="1">
          <mxGeometry width="50" height="50" relative="1" as="geometry">
            <mxPoint x="240" y="140" as="sourcePoint" />
            <mxPoint x="680" y="140" as="targetPoint" />
            <Array as="points">
              <mxPoint x="270" y="130" />
              <mxPoint x="300" y="140" />
              <mxPoint x="330" y="130" />
              <mxPoint x="370" y="150" />
              <mxPoint x="410" y="50" />
              <mxPoint x="430" y="40" />
              <mxPoint x="450" y="60" />
              <mxPoint x="470" y="50" />
              <mxPoint x="480" y="60" />
              <mxPoint x="500" y="50" />
              <mxPoint x="520" y="50" />
              <mxPoint x="530" y="60" />
              <mxPoint x="540" y="40" />
              <mxPoint x="560" y="60" />
              <mxPoint x="580" y="120" />
              <mxPoint x="590" y="60" />
              <mxPoint x="600" y="120" />
              <mxPoint x="610" y="70" />
              <mxPoint x="620" y="130" />
              <mxPoint x="630" y="80" />
              <mxPoint x="640" y="120" />
              <mxPoint x="650" y="60" />
              <mxPoint x="660" y="130" />
              <mxPoint x="670" y="110" />
            </Array>
          </mxGeometry>
        </mxCell>
        <mxCell id="Nl3SyjKrOJLu1EO7rE2Q-5" value="$$\textnormal{Program Execution}$$" style="text;html=1;align=center;verticalAlign=middle;whiteSpace=wrap;rounded=0;rotation=0;" vertex="1" parent="1">
          <mxGeometry x="280" y="160" width="360" height="30" as="geometry" />
        </mxCell>
        <mxCell id="Nl3SyjKrOJLu1EO7rE2Q-9" value="" style="endArrow=none;html=1;rounded=0;startArrow=none;startFill=0;" edge="1" parent="1" source="Nl3SyjKrOJLu1EO7rE2Q-32">
          <mxGeometry width="50" height="50" relative="1" as="geometry">
            <mxPoint x="680" y="220" as="sourcePoint" />
            <mxPoint x="250" y="220" as="targetPoint" />
          </mxGeometry>
        </mxCell>
        <mxCell id="Nl3SyjKrOJLu1EO7rE2Q-10" value="" style="endArrow=none;html=1;rounded=0;startArrow=none;startFill=0;" edge="1" parent="1" source="Nl3SyjKrOJLu1EO7rE2Q-20">
          <mxGeometry width="50" height="50" relative="1" as="geometry">
            <mxPoint x="680" y="260" as="sourcePoint" />
            <mxPoint x="250" y="260" as="targetPoint" />
          </mxGeometry>
        </mxCell>
        <mxCell id="Nl3SyjKrOJLu1EO7rE2Q-11" value="" style="endArrow=none;html=1;rounded=0;startArrow=none;startFill=0;" edge="1" parent="1" source="Nl3SyjKrOJLu1EO7rE2Q-38">
          <mxGeometry width="50" height="50" relative="1" as="geometry">
            <mxPoint x="680" y="300" as="sourcePoint" />
            <mxPoint x="250" y="300" as="targetPoint" />
          </mxGeometry>
        </mxCell>
        <mxCell id="Nl3SyjKrOJLu1EO7rE2Q-12" value="$$\begin{aligned}\textnormal{Random}&amp;amp;&amp;nbsp; \\ \textnormal{Sampling}&amp;amp;\end{aligned}$$" style="text;html=1;align=right;verticalAlign=middle;whiteSpace=wrap;rounded=0;rotation=0;" vertex="1" parent="1">
          <mxGeometry x="160" y="200" width="80" height="40" as="geometry" />
        </mxCell>
        <mxCell id="Nl3SyjKrOJLu1EO7rE2Q-13" value="$$\begin{aligned}\textnormal{Periodic}&amp;amp;&amp;nbsp; \\ \textnormal{Sampling}&amp;amp;\end{aligned}$$" style="text;html=1;align=right;verticalAlign=middle;whiteSpace=wrap;rounded=0;rotation=0;" vertex="1" parent="1">
          <mxGeometry x="160" y="240" width="80" height="40" as="geometry" />
        </mxCell>
        <mxCell id="Nl3SyjKrOJLu1EO7rE2Q-14" value="$$\begin{aligned}\textnormal{Representative}&amp;amp;&amp;nbsp; \\ \textnormal{Sampling}&amp;amp;\end{aligned}$$" style="text;html=1;align=right;verticalAlign=middle;whiteSpace=wrap;rounded=0;rotation=0;" vertex="1" parent="1">
          <mxGeometry x="140" y="280" width="100" height="40" as="geometry" />
        </mxCell>
        <mxCell id="Nl3SyjKrOJLu1EO7rE2Q-15" value="" style="rounded=0;whiteSpace=wrap;html=1;fillColor=#999999;" vertex="1" parent="1">
          <mxGeometry x="270" y="250" width="20" height="20" as="geometry" />
        </mxCell>
        <mxCell id="Nl3SyjKrOJLu1EO7rE2Q-23" value="" style="endArrow=none;html=1;rounded=0;startArrow=none;startFill=0;" edge="1" parent="1" source="Nl3SyjKrOJLu1EO7rE2Q-17" target="Nl3SyjKrOJLu1EO7rE2Q-20">
          <mxGeometry width="50" height="50" relative="1" as="geometry">
            <mxPoint x="680" y="260" as="sourcePoint" />
            <mxPoint x="250" y="260" as="targetPoint" />
          </mxGeometry>
        </mxCell>
        <mxCell id="Nl3SyjKrOJLu1EO7rE2Q-20" value="" style="rounded=0;whiteSpace=wrap;html=1;fillColor=#999999;" vertex="1" parent="1">
          <mxGeometry x="340" y="250" width="20" height="20" as="geometry" />
        </mxCell>
        <mxCell id="Nl3SyjKrOJLu1EO7rE2Q-24" value="" style="endArrow=none;html=1;rounded=0;startArrow=none;startFill=0;" edge="1" parent="1" source="Nl3SyjKrOJLu1EO7rE2Q-19" target="Nl3SyjKrOJLu1EO7rE2Q-18">
          <mxGeometry width="50" height="50" relative="1" as="geometry">
            <mxPoint x="680" y="260" as="sourcePoint" />
            <mxPoint x="350" y="260" as="targetPoint" />
          </mxGeometry>
        </mxCell>
        <mxCell id="Nl3SyjKrOJLu1EO7rE2Q-18" value="" style="rounded=0;whiteSpace=wrap;html=1;fillColor=#999999;" vertex="1" parent="1">
          <mxGeometry x="480" y="250" width="20" height="20" as="geometry" />
        </mxCell>
        <mxCell id="Nl3SyjKrOJLu1EO7rE2Q-25" value="" style="endArrow=none;html=1;rounded=0;startArrow=none;startFill=0;" edge="1" parent="1" source="Nl3SyjKrOJLu1EO7rE2Q-16" target="Nl3SyjKrOJLu1EO7rE2Q-19">
          <mxGeometry width="50" height="50" relative="1" as="geometry">
            <mxPoint x="680" y="260" as="sourcePoint" />
            <mxPoint x="530" y="260" as="targetPoint" />
          </mxGeometry>
        </mxCell>
        <mxCell id="Nl3SyjKrOJLu1EO7rE2Q-19" value="" style="rounded=0;whiteSpace=wrap;html=1;fillColor=#999999;" vertex="1" parent="1">
          <mxGeometry x="550" y="250" width="20" height="20" as="geometry" />
        </mxCell>
        <mxCell id="Nl3SyjKrOJLu1EO7rE2Q-26" value="" style="endArrow=none;html=1;rounded=0;startArrow=none;startFill=0;" edge="1" parent="1" target="Nl3SyjKrOJLu1EO7rE2Q-16">
          <mxGeometry width="50" height="50" relative="1" as="geometry">
            <mxPoint x="680" y="260" as="sourcePoint" />
            <mxPoint x="590" y="260" as="targetPoint" />
          </mxGeometry>
        </mxCell>
        <mxCell id="Nl3SyjKrOJLu1EO7rE2Q-16" value="" style="rounded=0;whiteSpace=wrap;html=1;fillColor=#999999;" vertex="1" parent="1">
          <mxGeometry x="620" y="250" width="20" height="20" as="geometry" />
        </mxCell>
        <mxCell id="Nl3SyjKrOJLu1EO7rE2Q-27" value="" style="endArrow=none;html=1;rounded=0;startArrow=none;startFill=0;" edge="1" parent="1" source="Nl3SyjKrOJLu1EO7rE2Q-18" target="Nl3SyjKrOJLu1EO7rE2Q-17">
          <mxGeometry width="50" height="50" relative="1" as="geometry">
            <mxPoint x="510" y="260" as="sourcePoint" />
            <mxPoint x="360" y="260" as="targetPoint" />
          </mxGeometry>
        </mxCell>
        <mxCell id="Nl3SyjKrOJLu1EO7rE2Q-17" value="" style="rounded=0;whiteSpace=wrap;html=1;fillColor=#999999;" vertex="1" parent="1">
          <mxGeometry x="410" y="250" width="20" height="20" as="geometry" />
        </mxCell>
        <mxCell id="Nl3SyjKrOJLu1EO7rE2Q-29" value="" style="rounded=0;whiteSpace=wrap;html=1;fillColor=#999999;" vertex="1" parent="1">
          <mxGeometry x="260" y="210" width="20" height="20" as="geometry" />
        </mxCell>
        <mxCell id="Nl3SyjKrOJLu1EO7rE2Q-31" value="" style="rounded=0;whiteSpace=wrap;html=1;fillColor=#999999;" vertex="1" parent="1">
          <mxGeometry x="351" y="211" width="20" height="20" as="geometry" />
        </mxCell>
        <mxCell id="Nl3SyjKrOJLu1EO7rE2Q-36" value="" style="endArrow=none;html=1;rounded=0;startArrow=none;startFill=0;" edge="1" parent="1" target="Nl3SyjKrOJLu1EO7rE2Q-32">
          <mxGeometry width="50" height="50" relative="1" as="geometry">
            <mxPoint x="680" y="220" as="sourcePoint" />
            <mxPoint x="250" y="220" as="targetPoint" />
          </mxGeometry>
        </mxCell>
        <mxCell id="Nl3SyjKrOJLu1EO7rE2Q-32" value="" style="rounded=0;whiteSpace=wrap;html=1;fillColor=#999999;" vertex="1" parent="1">
          <mxGeometry x="480" y="210" width="20" height="20" as="geometry" />
        </mxCell>
        <mxCell id="Nl3SyjKrOJLu1EO7rE2Q-33" value="" style="rounded=0;whiteSpace=wrap;html=1;fillColor=#999999;" vertex="1" parent="1">
          <mxGeometry x="567" y="210" width="20" height="20" as="geometry" />
        </mxCell>
        <mxCell id="Nl3SyjKrOJLu1EO7rE2Q-34" value="" style="rounded=0;whiteSpace=wrap;html=1;fillColor=#999999;" vertex="1" parent="1">
          <mxGeometry x="613" y="210" width="20" height="20" as="geometry" />
        </mxCell>
        <mxCell id="Nl3SyjKrOJLu1EO7rE2Q-37" value="" style="rounded=0;whiteSpace=wrap;html=1;fillColor=#999999;" vertex="1" parent="1">
          <mxGeometry x="290" y="290" width="20" height="20" as="geometry" />
        </mxCell>
        <mxCell id="Nl3SyjKrOJLu1EO7rE2Q-39" value="" style="endArrow=none;html=1;rounded=0;startArrow=none;startFill=0;" edge="1" parent="1" target="Nl3SyjKrOJLu1EO7rE2Q-38">
          <mxGeometry width="50" height="50" relative="1" as="geometry">
            <mxPoint x="680" y="300" as="sourcePoint" />
            <mxPoint x="250" y="300" as="targetPoint" />
          </mxGeometry>
        </mxCell>
        <mxCell id="Nl3SyjKrOJLu1EO7rE2Q-38" value="" style="rounded=0;whiteSpace=wrap;html=1;fillColor=#999999;" vertex="1" parent="1">
          <mxGeometry x="510" y="290" width="20" height="20" as="geometry" />
        </mxCell>
        <mxCell id="Nl3SyjKrOJLu1EO7rE2Q-42" value="" style="rounded=0;whiteSpace=wrap;html=1;fillColor=#999999;" vertex="1" parent="1">
          <mxGeometry x="590" y="290" width="20" height="20" as="geometry" />
        </mxCell>
      </root>
    </mxGraphModel>
  </diagram>
</mxfile>
